<?xml version="1.0" encoding="UTF-8"?>
<!DOCTYPE svg PUBLIC "-//W3C//DTD SVG 1.1//EN" "http://www.w3.org/Graphics/SVG/1.1/DTD/svg11.dtd">
<!-- Creator: CorelDRAW -->
<svg xmlns="http://www.w3.org/2000/svg" xml:space="preserve" width="3.5384in" height="1.31in" version="1.1" style="shape-rendering:geometricPrecision; text-rendering:geometricPrecision; image-rendering:optimizeQuality; fill-rule:evenodd; clip-rule:evenodd"
viewBox="0 0 3538.4 1310"
 xmlns:xlink="http://www.w3.org/1999/xlink"
 xmlns:xodm="http://www.corel.com/coreldraw/odm/2003">
 <defs>
  <style type="text/css">
   <![CDATA[
    .str2 {stroke:#344E41;stroke-width:41.67;stroke-miterlimit:2.61313}
    .str0 {stroke:#344E41;stroke-width:3;stroke-miterlimit:2.61313}
    .str1 {stroke:#344E41;stroke-width:27.78;stroke-linecap:round;stroke-miterlimit:2.61313}
    .fil2 {fill:#344E41}
    .fil0 {fill:#344E41;fill-rule:nonzero}
    .fil1 {fill:#A3B18A;fill-rule:nonzero}
   ]]>
  </style>
 </defs>
 <g id="Layer_x0020_1">
  <metadata id="CorelCorpID_0Corel-Layer"/>
  <path class="fil0" d="M1392.59 1023.94c-27.91,0 -49.31,-7.67 -64.19,-23.02 -14.88,-15.35 -22.33,-37.44 -22.33,-66.28l0 -527.48c0,-28.84 7.44,-50.7 22.33,-65.59 14.89,-14.88 35.82,-22.33 62.8,-22.33 26.98,0 47.91,7.44 62.79,22.33 14.89,14.89 22.33,36.75 22.33,65.59l0 94.89 -15.35 -34.89c20.46,-49.3 52.33,-86.75 95.59,-112.33 43.26,-25.58 92.33,-38.37 147.22,-38.37 54.89,0 100,10.24 135.36,30.7 35.35,20.46 61.86,51.4 79.54,92.8 17.68,41.4 26.52,93.72 26.52,156.98l0 337.7c0,28.84 -7.44,50.93 -22.33,66.28 -14.88,15.35 -36.28,23.02 -64.19,23.02 -27.91,0 -49.54,-7.67 -64.89,-23.02 -15.35,-15.35 -23.02,-37.44 -23.02,-66.28l0 -329.32c0,-53.03 -10,-91.63 -30,-115.82 -20,-24.19 -50.93,-36.28 -92.8,-36.28 -51.17,0 -91.87,16.05 -122.1,48.14 -30.24,32.1 -45.35,74.66 -45.35,127.69l0 305.6c0,59.54 -29.3,89.31 -87.91,89.31z"/>
  <g id="_2300085021248">
   <path class="fil0" d="M1036.76 190.87c-32.56,0 -57.91,-8.14 -76.06,-24.42 -18.14,-16.28 -27.21,-38.84 -27.21,-67.68 0,-29.77 9.07,-52.56 27.21,-68.37 18.14,-15.81 43.49,-23.72 76.06,-23.72 33.48,0 59.07,7.91 76.75,23.72 17.67,15.81 26.51,38.61 26.51,68.37 0,28.84 -8.84,51.4 -26.51,67.68 -17.68,16.28 -43.26,24.42 -76.75,24.42z"/>
   <path class="fil0" d="M1036.76 1022.55c-27.91,0 -49.31,-8.37 -64.19,-25.12 -14.88,-16.74 -22.33,-40 -22.33,-69.77l0 -512.13c0,-30.7 7.44,-54.19 22.33,-70.47 14.89,-16.28 36.28,-24.42 64.19,-24.42 27.91,0 49.54,8.14 64.89,24.42 15.35,16.28 23.02,39.77 23.02,70.47l0 512.13c0,29.77 -7.44,53.02 -22.33,69.77 -14.88,16.75 -36.75,25.12 -65.58,25.12z"/>
  </g>
  <path class="fil0" d="M93.44 1023.94c-28.84,0 -50.94,-8.14 -66.28,-24.42 -15.35,-16.28 -23.03,-38.84 -23.03,-67.68l0 -823.31c0,-29.78 7.67,-52.33 23.03,-67.68 15.35,-15.35 37.44,-23.03 66.28,-23.03 28.84,0 50.93,7.68 66.28,23.03 15.35,15.35 23.03,37.91 23.03,67.68l0 355.83 2.79 0 400.49 -401.89c14.89,-14.89 29.77,-26.05 44.66,-33.49 14.88,-7.44 31.63,-11.17 50.24,-11.17 26.98,0 46.28,6.98 57.91,20.94 11.63,13.95 16.28,30.23 13.96,48.84 -2.33,18.61 -11.4,35.81 -27.21,51.63l-407.47 403.28 1.39 -80.93 425.61 432.58c19.54,18.61 29.77,38.14 30.7,58.61 0.93,20.46 -5.35,37.44 -18.84,50.93 -13.49,13.49 -33.26,20.24 -59.3,20.24 -22.33,0 -40.24,-4.65 -53.72,-13.96 -13.49,-9.3 -29.07,-22.79 -46.75,-40.46l-411.65 -411.65 -2.79 0 0 373.98c0,28.84 -7.44,51.4 -22.33,67.68 -14.88,16.28 -37.21,24.42 -66.98,24.42z"/>
  <g id="_2300085011504">
   <path class="fil1" d="M3008.07 232.74c-188.35,0 -313.91,125.57 -313.91,313.91 0,282.52 313.91,565.05 313.91,565.05 0,0 313.91,-282.52 313.91,-565.05 0,-188.35 -125.56,-313.91 -313.91,-313.91z"/>
   <path class="fil0 str0" d="M2909.23 507.77c0,-20.15 -16.33,-36.48 -36.48,-36.48 -20.15,0 -36.48,16.33 -36.48,36.48 0,20.15 16.33,36.49 36.48,36.49 20.15,0 36.48,-16.33 36.48,-36.49z"/>
   <path class="fil0 str0" d="M3182.87 507.77c0,-20.15 -16.33,-36.48 -36.48,-36.48 -20.15,0 -36.48,16.33 -36.48,36.48 0,20.15 16.33,36.49 36.48,36.49 20.15,0 36.48,-16.33 36.48,-36.49z"/>
   <path class="fil2 str1" d="M2852.46 681.38c105.61,105.61 208.6,105.61 314.21,0 4.35,-4.35 11.43,-4.35 15.78,0 4.35,4.35 4.35,11.44 0,15.78 -114.38,114.38 -231.39,114.38 -345.77,0 -4.35,-4.35 -4.35,-11.44 0,-15.78 4.35,-4.35 11.43,-4.35 15.78,0z"/>
   <path class="fil0 str2" d="M3045.55 164.73l-76.64 0c-86.87,0 -148.47,4.84 -184.52,14.22 -36.06,9.39 -67,25.32 -93.11,47.51 -24.42,21.05 -41.45,49.5 -51.39,85.35 -9.93,35.84 -15.05,97.3 -15.05,184.35l0 351.63c0,86.77 5.11,147.65 15.05,182.93 9.94,35.28 26.97,63.44 51.39,84.49 26.11,22.19 57.05,38.12 93.11,47.51 36.05,9.39 97.65,14.22 184.52,14.22l76.64 0c86.87,0 148.75,-4.84 185.37,-14.22 36.62,-9.39 67.85,-25.32 93.96,-47.51 23.85,-20.48 40.59,-48.07 50.24,-82.5 9.65,-34.43 14.48,-95.87 14.48,-184.92l0 -353.05c0,-87.34 -5.11,-148.79 -15.04,-184.63 -9.94,-35.85 -26.97,-64.29 -51.38,-85.35 -25.55,-21.62 -56.2,-36.98 -92.26,-46.37 -36.06,-9.1 -97.94,-13.65 -185.37,-13.65zm-562.07 295.87c0,-158.74 32.65,-269.13 98.22,-331.71 65.29,-62.59 181.39,-93.89 348.31,-93.89l156.13 0c168.63,0 285.01,30.72 349.74,92.46 64.44,61.74 96.8,172.97 96.8,333.13l0 420.48c0,159.31 -32.93,269.98 -98.5,332.28 -65.58,62.31 -181.68,93.31 -348.04,93.31l-156.13 0c-166.92,0 -283.02,-31 -348.31,-93.31 -65.57,-62.3 -98.22,-172.97 -98.22,-332.28l0 -420.48z"/>
  </g>
  <path class="fil0" d="M2042.24 1276.55c-2.77,0.25 -5.48,0.41 -8.11,0.49l0 0.04 -3.01 0c-674.48,0 -1348.96,0 -2023.43,0 136.79,-42.22 163.19,-84.45 0,-126.67l1996.56 0c2.38,0 4.78,-0.63 7.29,-0.85 41.87,-3.66 72.33,-15.58 91.4,-35.58 19.07,-20 28.61,-50.47 28.61,-91.4l0 -615.39c0,-28.84 7.68,-50.7 23.02,-65.59 15.35,-14.88 36.98,-22.33 64.89,-22.33 27.91,0 49.31,7.44 64.19,22.33 14.89,14.89 22.33,36.75 22.33,65.59l0 600.04c0,59.54 -9.54,108.38 -28.61,146.52 -19.07,38.15 -47.91,66.98 -86.52,86.52 -38.61,19.54 -88.15,31.63 -148.61,36.28z"/>
  <path class="fil0" d="M2218.06 190.9c-32.56,0 -57.91,-8.14 -76.05,-24.42 -18.14,-16.28 -27.21,-38.84 -27.21,-67.68 0,-29.77 9.07,-52.56 27.21,-68.37 18.14,-15.81 43.49,-23.72 76.05,-23.72 33.49,0 59.07,7.91 76.75,23.72 17.68,15.81 26.52,38.61 26.52,68.37 0,28.84 -8.84,51.4 -26.52,67.68 -17.68,16.28 -43.26,24.42 -76.75,24.42z"/>
 </g>
</svg>
