<?xml version="1.0" encoding="UTF-8"?>
<!DOCTYPE svg PUBLIC "-//W3C//DTD SVG 1.1//EN" "http://www.w3.org/Graphics/SVG/1.1/DTD/svg11.dtd">
<!-- Creator: CorelDRAW -->
<svg xmlns="http://www.w3.org/2000/svg" xml:space="preserve" width="3.41333in" height="3.41333in" version="1.1" style="shape-rendering:geometricPrecision; text-rendering:geometricPrecision; image-rendering:optimizeQuality; fill-rule:evenodd; clip-rule:evenodd"
viewBox="0 0 3413.33 3413.33"
 xmlns:xlink="http://www.w3.org/1999/xlink"
 xmlns:xodm="http://www.corel.com/coreldraw/odm/2003">
 <defs>
  <style type="text/css">
   <![CDATA[
    .str0 {stroke:#344E41;stroke-width:3;stroke-miterlimit:2.61313}
    .fil3 {fill:#344E41}
    .fil0 {fill:#344E41;fill-rule:nonzero}
    .fil1 {fill:#6B7280;fill-rule:nonzero}
    .fil2 {fill:#A3B18A;fill-rule:nonzero}
   ]]>
  </style>
 </defs>
 <g id="Layer_x0020_1">
  <metadata id="CorelCorpID_0Corel-Layer"/>
  <g id="_2623148155680">
   <path class="fil0" d="M89.75 2090.65c-28.98,0 -51.19,-8.18 -66.61,-24.54 -15.43,-16.36 -23.14,-39.04 -23.14,-68.02l0 -827.41c0,-29.92 7.71,-52.59 23.14,-68.02 15.43,-15.43 37.63,-23.14 66.61,-23.14 28.98,0 51.19,7.71 66.61,23.14 15.43,15.43 23.14,38.09 23.14,68.02l0 357.61 2.8 0 402.48 -403.89c14.96,-14.96 29.92,-26.18 44.88,-33.66 14.96,-7.48 31.79,-11.22 50.48,-11.22 27.11,0 46.51,7.02 58.2,21.04 11.69,14.02 16.36,30.38 14.02,49.08 -2.34,18.7 -11.45,35.99 -27.35,51.89l-409.5 405.29 1.4 -81.33 427.73 434.74c19.63,18.7 29.92,38.33 30.85,58.9 0.94,20.57 -5.37,37.63 -18.93,51.19 -13.56,13.56 -33.42,20.33 -59.6,20.33 -22.44,0 -40.44,-4.67 -53.99,-14.02 -13.56,-9.35 -29.22,-22.91 -46.98,-40.67l-413.7 -413.7 -2.8 0 0 375.84c0,28.98 -7.48,51.65 -22.44,68.02 -14.96,16.36 -37.39,24.54 -67.31,24.54zm948.01 -1.4c-28.05,0 -49.55,-8.41 -64.51,-25.24 -14.96,-16.83 -22.44,-40.2 -22.44,-70.12l0 -514.67c0,-30.85 7.48,-54.46 22.44,-70.82 14.96,-16.36 36.46,-24.54 64.51,-24.54 28.05,0 49.78,8.18 65.21,24.54 15.43,16.36 23.14,39.96 23.14,70.82l0 514.67c0,29.92 -7.48,53.29 -22.44,70.12 -14.96,16.83 -36.93,25.24 -65.91,25.24zm0 -835.82c-32.72,0 -58.2,-8.18 -76.43,-24.54 -18.23,-16.36 -27.35,-39.03 -27.35,-68.02 0,-29.92 9.11,-52.82 27.35,-68.72 18.23,-15.89 43.71,-23.84 76.43,-23.84 33.65,0 59.37,7.94 77.13,23.84 17.76,15.89 26.65,38.8 26.65,68.72 0,28.98 -8.88,51.66 -26.65,68.02 -17.76,16.36 -43.48,24.54 -77.13,24.54zm357.61 837.22c-28.05,0 -49.55,-7.71 -64.51,-23.14 -14.96,-15.43 -22.44,-37.63 -22.44,-66.61l0 -530.1c0,-28.98 7.48,-50.95 22.44,-65.91 14.96,-14.96 36,-22.44 63.11,-22.44 27.11,0 48.15,7.48 63.11,22.44 14.96,14.96 22.44,36.93 22.44,65.91l0 95.36 -15.43 -35.06c20.57,-49.55 52.59,-87.18 96.06,-112.89 43.48,-25.71 92.79,-38.57 147.95,-38.57 55.16,0 100.5,10.29 136.03,30.85 35.53,20.57 62.17,51.65 79.93,93.26 17.77,41.6 26.65,94.19 26.65,157.76l0 339.38c0,28.98 -7.48,51.19 -22.44,66.61 -14.96,15.43 -36.46,23.14 -64.51,23.14 -28.05,0 -49.79,-7.71 -65.21,-23.14 -15.43,-15.43 -23.14,-37.63 -23.14,-66.61l0 -330.96c0,-53.29 -10.05,-92.09 -30.15,-116.4 -20.1,-24.31 -51.19,-36.46 -93.26,-36.46 -51.42,0 -92.32,16.13 -122.71,48.38 -30.39,32.26 -45.58,75.03 -45.58,128.32l0 307.12c0,59.83 -29.45,89.75 -88.35,89.75zm649.31 253.83c-20.57,1.87 -37.4,-1.17 -50.49,-9.11 -13.09,-7.94 -22.2,-18 -27.35,-30.15 -5.14,-12.15 -6.78,-24.78 -4.91,-37.87 1.87,-13.09 7.25,-24.54 16.13,-34.36 8.88,-9.81 20.8,-15.19 35.76,-16.13 42.07,-3.74 72.69,-15.66 91.85,-35.76 19.17,-20.1 28.75,-50.72 28.75,-91.86l0 -618.45c0,-28.98 7.71,-50.95 23.14,-65.91 15.43,-14.96 37.16,-22.44 65.21,-22.44 28.05,0 49.56,7.48 64.51,22.44 14.96,14.96 22.44,36.93 22.44,65.91l0 603.02c0,59.83 -9.58,108.92 -28.75,147.25 -19.17,38.33 -48.15,67.31 -86.95,86.95 -38.8,19.63 -88.58,31.79 -149.35,36.46zm176.7 -1091.05c-32.72,0 -58.2,-8.18 -76.43,-24.54 -18.23,-16.36 -27.35,-39.03 -27.35,-68.02 0,-29.92 9.11,-52.82 27.35,-68.72 18.23,-15.89 43.71,-23.84 76.43,-23.84 33.66,0 59.37,7.94 77.13,23.84 17.76,15.89 26.65,38.8 26.65,68.72 0,28.98 -8.88,51.66 -26.65,68.02 -17.76,16.36 -43.48,24.54 -77.13,24.54z"/>
   <path class="fil1" d="M58.08 2295.28c-5.7,0 -10.11,-1.59 -13.22,-4.76 -3.11,-3.17 -4.67,-7.74 -4.67,-13.7l0 -53.25 7.39 19.63 -44.7 -64.33c-2.2,-3.11 -3.14,-6.57 -2.82,-10.4 0.32,-3.82 1.88,-7.06 4.67,-9.72 2.78,-2.66 6.77,-3.98 11.95,-3.98 3.63,0 6.93,0.87 9.91,2.62 2.98,1.75 5.76,4.7 8.35,8.84l27.21 40.04 -7 0 27.21 -40.23c2.72,-4.15 5.51,-7.06 8.36,-8.74 2.85,-1.69 6.22,-2.53 10.11,-2.53 4.92,0 8.74,1.23 11.47,3.69 2.72,2.46 4.18,5.57 4.37,9.33 0.2,3.76 -1,7.58 -3.59,11.47l-44.31 63.94 7.19 -19.63 0 53.25c0,12.31 -5.96,18.46 -17.88,18.46zm104.37 0.39c-10.63,0 -19.89,-2.01 -27.79,-6.02 -7.91,-4.02 -14.06,-9.78 -18.46,-17.3 -4.41,-7.52 -6.61,-16.39 -6.61,-26.62 0,-7.78 1.23,-14.74 3.69,-20.89 2.46,-6.15 6.03,-11.4 10.69,-15.74 4.66,-4.34 10.23,-7.64 16.71,-9.91 6.48,-2.27 13.73,-3.4 21.77,-3.4 10.62,0 19.89,2.01 27.79,6.02 7.9,4.02 14.03,9.75 18.37,17.2 4.34,7.45 6.51,16.36 6.51,26.72 0,7.64 -1.23,14.57 -3.69,20.79 -2.46,6.22 -5.99,11.5 -10.59,15.84 -4.6,4.34 -10.17,7.65 -16.72,9.91 -6.54,2.27 -13.77,3.4 -21.67,3.4zm0 -25.46c3.5,0 6.61,-0.87 9.33,-2.62 2.72,-1.75 4.83,-4.41 6.32,-7.97 1.49,-3.56 2.23,-8.19 2.23,-13.89 0,-8.69 -1.69,-14.93 -5.05,-18.76 -3.37,-3.82 -7.65,-5.73 -12.83,-5.73 -3.5,0 -6.61,0.84 -9.33,2.52 -2.72,1.69 -4.86,4.31 -6.41,7.87 -1.56,3.56 -2.33,8.26 -2.33,14.09 0,8.55 1.69,14.77 5.05,18.65 3.37,3.89 7.71,5.83 13.02,5.83zm104.37 25.46c-8.29,0 -15.09,-1.52 -20.41,-4.57 -5.31,-3.05 -9.3,-7.61 -11.95,-13.7 -2.66,-6.09 -3.98,-13.8 -3.98,-23.13l0 -40.81c0,-5.7 1.49,-10.01 4.47,-12.93 2.98,-2.91 7.26,-4.37 12.83,-4.37 5.57,0 9.85,1.46 12.83,4.37 2.98,2.92 4.47,7.22 4.47,12.93l0 41.78c0,4.67 0.97,8.16 2.91,10.5 1.94,2.33 4.99,3.5 9.13,3.5 4.67,0 8.49,-1.68 11.47,-5.05 2.98,-3.37 4.47,-7.84 4.47,-13.41l0 -37.31c0,-5.7 1.49,-10.01 4.47,-12.93 2.98,-2.91 7.26,-4.37 12.83,-4.37 5.57,0 9.85,1.46 12.83,4.37 2.98,2.92 4.47,7.22 4.47,12.93l0 64.33c0,11.66 -5.57,17.49 -16.71,17.49 -5.44,0 -9.65,-1.49 -12.63,-4.47 -2.98,-2.98 -4.47,-7.32 -4.47,-13.02l0 -11.27 3.11 9.52c-2.85,6.35 -6.83,11.21 -11.96,14.57 -5.11,3.37 -11.17,5.06 -18.17,5.06zm98.73 -0.39c-5.7,0 -10.07,-1.49 -13.12,-4.47 -3.04,-2.98 -4.57,-7.32 -4.57,-13.02l0 -64.33c0,-5.57 1.46,-9.85 4.37,-12.83 2.91,-2.98 7.09,-4.47 12.54,-4.47 5.44,0 9.59,1.49 12.44,4.47 2.85,2.98 4.28,7.26 4.28,12.83l0 7.97 -1.94 0c1.3,-7.78 4.63,-13.93 10.01,-18.46 5.38,-4.54 12.08,-6.93 20.11,-7.19 3.76,-0.13 6.57,0.81 8.46,2.81 1.88,2.01 2.88,5.74 3.01,11.18 0,4.67 -0.97,8.36 -2.92,11.08 -1.94,2.72 -5.63,4.34 -11.08,4.86l-4.47 0.39c-6.87,0.65 -11.85,2.56 -14.96,5.73 -3.11,3.17 -4.67,7.87 -4.67,14.09l0 31.87c0,5.7 -1.49,10.04 -4.47,13.02 -2.98,2.98 -7.32,4.47 -13.02,4.47zm139.35 34.98c-5.44,0 -9.65,-1.49 -12.63,-4.47 -2.98,-2.98 -4.47,-7.32 -4.47,-13.02l0 -99.31c0,-5.57 1.46,-9.85 4.37,-12.83 2.91,-2.98 7.09,-4.47 12.54,-4.47 5.57,0 9.81,1.49 12.73,4.47 2.92,2.98 4.37,7.26 4.37,12.83l0 11.27 -2.14 -9.52c1.81,-5.83 5.6,-10.53 11.37,-14.09 5.76,-3.56 12.34,-5.34 19.72,-5.34 8.3,0 15.58,2.01 21.87,6.02 6.28,4.02 11.18,9.72 14.67,17.1 3.5,7.39 5.25,16.33 5.25,26.82 0,10.23 -1.75,19.11 -5.25,26.62 -3.5,7.52 -8.39,13.28 -14.67,17.3 -6.28,4.02 -13.57,6.02 -21.87,6.02 -7.13,0 -13.54,-1.69 -19.24,-5.06 -5.7,-3.37 -9.52,-7.77 -11.46,-13.21l2.33 0 0 35.37c0,5.7 -1.52,10.04 -4.57,13.02 -3.05,2.98 -7.35,4.47 -12.93,4.47zm34.98 -60.06c3.5,0 6.57,-0.87 9.23,-2.62 2.65,-1.75 4.76,-4.41 6.31,-7.97 1.56,-3.56 2.33,-8.19 2.33,-13.89 0,-8.69 -1.68,-14.93 -5.05,-18.76 -3.37,-3.82 -7.65,-5.73 -12.83,-5.73 -3.5,0 -6.61,0.84 -9.33,2.52 -2.72,1.69 -4.86,4.31 -6.41,7.87 -1.56,3.56 -2.33,8.26 -2.33,14.09 0,8.55 1.69,14.77 5.05,18.65 3.37,3.89 7.71,5.83 13.02,5.83zm120.5 25.46c-11.66,0 -21.73,-2.04 -30.22,-6.12 -8.49,-4.08 -15,-9.88 -19.53,-17.39 -4.54,-7.52 -6.8,-16.39 -6.8,-26.63 0,-9.85 2.17,-18.5 6.51,-25.94 4.34,-7.45 10.3,-13.28 17.88,-17.49 7.58,-4.21 16.23,-6.31 25.95,-6.31 7.13,0 13.6,1.13 19.43,3.4 5.83,2.27 10.82,5.57 14.96,9.91 4.15,4.34 7.29,9.56 9.43,15.65 2.14,6.09 3.21,12.89 3.21,20.41 0,2.59 -0.71,4.5 -2.14,5.73 -1.43,1.23 -3.69,1.85 -6.8,1.85l-59.47 0 0 -16.33 43.15 0 -3.11 2.53c0,-4.8 -0.65,-8.68 -1.94,-11.66 -1.3,-2.98 -3.21,-5.25 -5.74,-6.8 -2.52,-1.56 -5.67,-2.33 -9.43,-2.33 -4.02,0 -7.48,0.94 -10.4,2.81 -2.91,1.88 -5.15,4.63 -6.7,8.26 -1.56,3.63 -2.33,8.17 -2.33,13.61l0 1.75c0,9.2 2.04,15.78 6.12,19.73 4.08,3.95 10.4,5.93 18.95,5.93 2.85,0 6.12,-0.35 9.81,-1.07 3.69,-0.71 7.22,-1.72 10.59,-3.01 3.37,-1.3 6.28,-1.52 8.75,-0.68 2.46,0.84 4.37,2.27 5.73,4.28 1.36,2.01 2.11,4.28 2.24,6.8 0.13,2.52 -0.46,4.99 -1.75,7.39 -1.3,2.39 -3.43,4.24 -6.41,5.54 -4.54,2.07 -9.36,3.63 -14.48,4.67 -5.12,1.04 -10.27,1.56 -15.45,1.56zm104.17 0c-10.63,0 -19.89,-2.01 -27.79,-6.02 -7.91,-4.02 -14.06,-9.78 -18.47,-17.3 -4.4,-7.52 -6.61,-16.39 -6.61,-26.62 0,-7.78 1.23,-14.74 3.69,-20.89 2.46,-6.15 6.03,-11.4 10.69,-15.74 4.67,-4.34 10.24,-7.64 16.72,-9.91 6.48,-2.27 13.73,-3.4 21.77,-3.4 10.62,0 19.89,2.01 27.79,6.02 7.9,4.02 14.02,9.75 18.37,17.2 4.34,7.45 6.51,16.36 6.51,26.72 0,7.64 -1.23,14.57 -3.69,20.79 -2.46,6.22 -6,11.5 -10.59,15.84 -4.6,4.34 -10.17,7.65 -16.71,9.91 -6.54,2.27 -13.77,3.4 -21.67,3.4zm0 -25.46c3.5,0 6.61,-0.87 9.33,-2.62 2.72,-1.75 4.83,-4.41 6.32,-7.97 1.49,-3.56 2.23,-8.19 2.23,-13.89 0,-8.69 -1.69,-14.93 -5.05,-18.76 -3.37,-3.82 -7.65,-5.73 -12.83,-5.73 -3.5,0 -6.61,0.84 -9.33,2.52 -2.72,1.69 -4.86,4.31 -6.41,7.87 -1.56,3.56 -2.33,8.26 -2.33,14.09 0,8.55 1.68,14.77 5.05,18.65 3.37,3.89 7.71,5.83 13.02,5.83zm85.71 60.06c-5.44,0 -9.65,-1.49 -12.63,-4.47 -2.98,-2.98 -4.47,-7.32 -4.47,-13.02l0 -99.31c0,-5.57 1.46,-9.85 4.37,-12.83 2.92,-2.98 7.09,-4.47 12.54,-4.47 5.57,0 9.81,1.49 12.73,4.47 2.91,2.98 4.37,7.26 4.37,12.83l0 11.27 -2.14 -9.52c1.81,-5.83 5.6,-10.53 11.37,-14.09 5.77,-3.56 12.34,-5.34 19.73,-5.34 8.29,0 15.58,2.01 21.87,6.02 6.28,4.02 11.17,9.72 14.67,17.1 3.5,7.39 5.24,16.33 5.24,26.82 0,10.23 -1.75,19.11 -5.24,26.62 -3.5,7.52 -8.39,13.28 -14.67,17.3 -6.29,4.02 -13.57,6.02 -21.87,6.02 -7.13,0 -13.54,-1.69 -19.24,-5.06 -5.7,-3.37 -9.52,-7.77 -11.47,-13.21l2.33 0 0 35.37c0,5.7 -1.52,10.04 -4.57,13.02 -3.04,2.98 -7.35,4.47 -12.92,4.47zm34.98 -60.06c3.5,0 6.58,-0.87 9.23,-2.62 2.66,-1.75 4.76,-4.41 6.32,-7.97 1.56,-3.56 2.33,-8.19 2.33,-13.89 0,-8.69 -1.69,-14.93 -5.05,-18.76 -3.37,-3.82 -7.65,-5.73 -12.83,-5.73 -3.5,0 -6.61,0.84 -9.33,2.52 -2.72,1.69 -4.86,4.31 -6.41,7.87 -1.56,3.56 -2.33,8.26 -2.33,14.09 0,8.55 1.68,14.77 5.05,18.65 3.37,3.89 7.71,5.83 13.02,5.83zm104.76 25.46c-12.44,0 -21.61,-3.33 -27.5,-10.01 -5.9,-6.67 -8.84,-16.75 -8.84,-30.22l0 -83.18c0,-5.7 1.49,-10.04 4.47,-13.02 2.98,-2.98 7.19,-4.47 12.63,-4.47 5.57,0 9.88,1.49 12.93,4.47 3.04,2.98 4.57,7.32 4.57,13.02l0 82.01c0,4.8 0.94,8.3 2.82,10.5 1.88,2.2 4.31,3.3 7.29,3.3 0.91,0 1.85,-0.09 2.82,-0.29 0.97,-0.19 2.04,-0.35 3.2,-0.48 2.2,0 3.85,0.84 4.96,2.53 1.1,1.68 1.65,5.11 1.65,10.3 0,4.54 -0.91,7.93 -2.72,10.2 -1.81,2.27 -4.6,3.73 -8.36,4.37 -1.04,0.13 -2.53,0.32 -4.47,0.58 -1.94,0.26 -3.76,0.39 -5.44,0.39zm82.41 0c-11.66,0 -21.74,-2.04 -30.22,-6.12 -8.49,-4.08 -15,-9.88 -19.53,-17.39 -4.54,-7.52 -6.8,-16.39 -6.8,-26.63 0,-9.85 2.17,-18.5 6.51,-25.94 4.34,-7.45 10.3,-13.28 17.88,-17.49 7.58,-4.21 16.23,-6.31 25.94,-6.31 7.13,0 13.61,1.13 19.44,3.4 5.83,2.27 10.82,5.57 14.96,9.91 4.15,4.34 7.29,9.56 9.43,15.65 2.14,6.09 3.21,12.89 3.21,20.41 0,2.59 -0.71,4.5 -2.14,5.73 -1.43,1.23 -3.69,1.85 -6.8,1.85l-59.47 0 0 -16.33 43.15 0 -3.11 2.53c0,-4.8 -0.65,-8.68 -1.94,-11.66 -1.3,-2.98 -3.2,-5.25 -5.73,-6.8 -2.53,-1.56 -5.67,-2.33 -9.43,-2.33 -4.02,0 -7.48,0.94 -10.4,2.81 -2.91,1.88 -5.15,4.63 -6.7,8.26 -1.56,3.63 -2.33,8.17 -2.33,13.61l0 1.75c0,9.2 2.04,15.78 6.12,19.73 4.08,3.95 10.4,5.93 18.95,5.93 2.85,0 6.12,-0.35 9.81,-1.07 3.69,-0.71 7.22,-1.72 10.59,-3.01 3.37,-1.3 6.28,-1.52 8.75,-0.68 2.46,0.84 4.37,2.27 5.73,4.28 1.36,2.01 2.11,4.28 2.24,6.8 0.13,2.52 -0.45,4.99 -1.75,7.39 -1.3,2.39 -3.43,4.24 -6.41,5.54 -4.54,2.07 -9.36,3.63 -14.48,4.67 -5.12,1.04 -10.27,1.56 -15.45,1.56zm76.96 21.19c-2.07,2.85 -4.37,4.44 -6.9,4.76 -2.53,0.32 -4.7,-0.19 -6.51,-1.56 -1.81,-1.36 -2.81,-3.24 -3.01,-5.63 -0.19,-2.4 0.87,-5.02 3.21,-7.87 3.24,-3.76 5.37,-7.51 6.41,-11.27 1.04,-3.76 1.56,-7.13 1.56,-10.11l1.17 9.52c-5.96,0 -10.76,-1.72 -14.38,-5.15 -3.63,-3.43 -5.44,-8.07 -5.44,-13.89 0,-5.57 1.72,-10.07 5.15,-13.51 3.43,-3.43 8.06,-5.15 13.89,-5.15 6.09,0 10.82,2.04 14.19,6.12 3.37,4.08 5.06,9.75 5.06,17 0,3.63 -0.36,7.32 -1.07,11.08 -0.71,3.76 -2.07,7.74 -4.08,11.95 -2.01,4.21 -5.09,8.78 -9.23,13.7zm104.37 -21.57c-5.44,0 -9.65,-1.49 -12.63,-4.47 -2.98,-2.98 -4.47,-7.32 -4.47,-13.02l0 -64.33c0,-5.57 1.46,-9.85 4.37,-12.83 2.92,-2.98 7.09,-4.47 12.54,-4.47 5.44,0 9.59,1.49 12.44,4.47 2.85,2.98 4.28,7.26 4.28,12.83l0 9.13 -2.14 -7.97c3.11,-6.09 7.55,-10.75 13.31,-13.99 5.77,-3.24 12.34,-4.86 19.73,-4.86 7.64,0 13.93,1.46 18.85,4.37 4.93,2.91 8.62,7.45 11.08,13.6 2.46,6.15 3.69,13.89 3.69,23.22l0 40.81c0,5.7 -1.49,10.04 -4.47,13.02 -2.98,2.98 -7.25,4.47 -12.83,4.47 -5.57,0 -9.85,-1.49 -12.83,-4.47 -2.98,-2.98 -4.47,-7.32 -4.47,-13.02l0 -39.45c0,-5.83 -1,-9.98 -3.01,-12.44 -2.01,-2.46 -4.96,-3.69 -8.84,-3.69 -5.19,0 -9.33,1.65 -12.44,4.96 -3.11,3.3 -4.67,7.74 -4.67,13.31l0 37.31c0,11.66 -5.83,17.49 -17.49,17.49zm152.76 0.39c-11.66,0 -21.73,-2.04 -30.22,-6.12 -8.48,-4.08 -15,-9.88 -19.53,-17.39 -4.54,-7.52 -6.8,-16.39 -6.8,-26.63 0,-9.85 2.17,-18.5 6.51,-25.94 4.34,-7.45 10.3,-13.28 17.88,-17.49 7.58,-4.21 16.23,-6.31 25.94,-6.31 7.13,0 13.6,1.13 19.43,3.4 5.83,2.27 10.82,5.57 14.97,9.91 4.15,4.34 7.29,9.56 9.43,15.65 2.14,6.09 3.2,12.89 3.2,20.41 0,2.59 -0.71,4.5 -2.14,5.73 -1.43,1.23 -3.69,1.85 -6.8,1.85l-59.47 0 0 -16.33 43.15 0 -3.11 2.53c0,-4.8 -0.65,-8.68 -1.94,-11.66 -1.3,-2.98 -3.2,-5.25 -5.73,-6.8 -2.53,-1.56 -5.67,-2.33 -9.43,-2.33 -4.02,0 -7.48,0.94 -10.4,2.81 -2.92,1.88 -5.15,4.63 -6.7,8.26 -1.56,3.63 -2.33,8.17 -2.33,13.61l0 1.75c0,9.2 2.04,15.78 6.12,19.73 4.08,3.95 10.4,5.93 18.95,5.93 2.85,0 6.12,-0.35 9.81,-1.07 3.69,-0.71 7.22,-1.72 10.59,-3.01 3.37,-1.3 6.28,-1.52 8.74,-0.68 2.46,0.84 4.37,2.27 5.73,4.28 1.36,2.01 2.11,4.28 2.24,6.8 0.13,2.52 -0.45,4.99 -1.75,7.39 -1.3,2.39 -3.43,4.24 -6.41,5.54 -4.54,2.07 -9.36,3.63 -14.48,4.67 -5.12,1.04 -10.27,1.56 -15.45,1.56zm89.01 0c-7.39,0 -13.89,-1.36 -19.53,-4.08 -5.63,-2.72 -10.04,-6.44 -13.22,-11.17 -3.17,-4.73 -4.76,-10.14 -4.76,-16.23 0,-7 1.81,-12.5 5.44,-16.52 3.63,-4.02 9.46,-6.9 17.49,-8.65 8.04,-1.75 18.72,-2.62 32.07,-2.62l10.69 0 0 16.33 -10.69 0c-5.06,0 -9.24,0.35 -12.54,1.07 -3.3,0.71 -5.73,1.81 -7.29,3.3 -1.56,1.49 -2.33,3.4 -2.33,5.73 0,2.98 1.07,5.44 3.2,7.39 2.14,1.94 5.22,2.92 9.23,2.92 3.24,0 6.12,-0.71 8.65,-2.14 2.53,-1.43 4.57,-3.4 6.12,-5.93 1.56,-2.53 2.33,-5.47 2.33,-8.84l0 -22.54c0,-4.67 -1.2,-7.97 -3.59,-9.91 -2.4,-1.94 -6.51,-2.91 -12.34,-2.91 -3.11,0 -6.61,0.35 -10.5,1.07 -3.89,0.71 -8.22,1.98 -13.02,3.79 -3.5,1.3 -6.48,1.49 -8.94,0.58 -2.46,-0.91 -4.37,-2.46 -5.73,-4.67 -1.36,-2.2 -2.01,-4.6 -1.94,-7.19 0.06,-2.59 0.91,-5.06 2.52,-7.39 1.62,-2.33 4.11,-4.15 7.48,-5.44 6.22,-2.33 11.95,-3.89 17.2,-4.67 5.25,-0.78 10.07,-1.17 14.48,-1.17 10.63,0 19.41,1.52 26.33,4.57 6.93,3.04 12.11,7.71 15.55,13.99 3.43,6.28 5.15,14.35 5.15,24.2l0 39.26c0,5.7 -1.36,10.04 -4.08,13.02 -2.72,2.98 -6.67,4.47 -11.85,4.47 -5.31,0 -9.36,-1.49 -12.15,-4.47 -2.78,-2.98 -4.18,-7.32 -4.18,-13.02l0 -5.05 1.17 2.72c-0.65,4.15 -2.14,7.71 -4.47,10.69 -2.33,2.98 -5.38,5.31 -9.13,7 -3.76,1.69 -8.04,2.53 -12.83,2.53zm94.85 -0.39c-5.7,0 -10.07,-1.49 -13.12,-4.47 -3.04,-2.98 -4.57,-7.32 -4.57,-13.02l0 -64.33c0,-5.57 1.46,-9.85 4.37,-12.83 2.92,-2.98 7.09,-4.47 12.54,-4.47 5.44,0 9.59,1.49 12.44,4.47 2.85,2.98 4.28,7.26 4.28,12.83l0 7.97 -1.94 0c1.3,-7.78 4.63,-13.93 10.01,-18.46 5.38,-4.54 12.08,-6.93 20.12,-7.19 3.76,-0.13 6.57,0.81 8.45,2.81 1.88,2.01 2.88,5.74 3.01,11.18 0,4.67 -0.97,8.36 -2.91,11.08 -1.94,2.72 -5.64,4.34 -11.08,4.86l-4.47 0.39c-6.87,0.65 -11.86,2.56 -14.96,5.73 -3.11,3.17 -4.67,7.87 -4.67,14.09l0 31.87c0,5.7 -1.49,10.04 -4.47,13.02 -2.98,2.98 -7.32,4.47 -13.02,4.47zm129.63 0.39c-7.38,0 -13.96,-1.78 -19.72,-5.35 -5.77,-3.56 -9.56,-8.26 -11.37,-14.09l2.14 -7.97 0 9.52c0,5.7 -1.46,10.04 -4.37,13.02 -2.92,2.98 -7.1,4.47 -12.54,4.47 -5.57,0 -9.81,-1.49 -12.73,-4.47 -2.92,-2.98 -4.37,-7.32 -4.37,-13.02l0 -105.53c0,-5.7 1.49,-10.04 4.47,-13.02 2.98,-2.98 7.19,-4.47 12.63,-4.47 5.57,0 9.88,1.49 12.93,4.47 3.05,2.98 4.57,7.32 4.57,13.02l0 41.59 -2.33 0c1.94,-5.31 5.76,-9.65 11.47,-13.02 5.7,-3.37 12.11,-5.05 19.24,-5.05 8.3,0 15.58,2.01 21.87,6.02 6.28,4.02 11.18,9.72 14.67,17.1 3.5,7.39 5.25,16.33 5.25,26.82 0,10.23 -1.75,19.11 -5.25,26.62 -3.5,7.52 -8.39,13.28 -14.67,17.3 -6.28,4.02 -13.57,6.02 -21.87,6.02zm-10.88 -25.46c3.5,0 6.57,-0.87 9.23,-2.62 2.65,-1.75 4.76,-4.41 6.31,-7.97 1.56,-3.56 2.33,-8.19 2.33,-13.89 0,-8.69 -1.69,-14.93 -5.06,-18.76 -3.37,-3.82 -7.65,-5.73 -12.83,-5.73 -3.5,0 -6.61,0.84 -9.33,2.52 -2.72,1.69 -4.86,4.31 -6.41,7.87 -1.56,3.56 -2.33,8.26 -2.33,14.09 0,8.55 1.69,14.77 5.06,18.65 3.37,3.89 7.71,5.83 13.02,5.83zm93.68 60.06c-4.02,0 -7.26,-1.04 -9.72,-3.11 -2.46,-2.07 -3.98,-4.8 -4.57,-8.16 -0.58,-3.37 -0.03,-6.93 1.65,-10.69l13.02 -28.18 0 13.99 -33.23 -75.99c-1.69,-3.89 -2.24,-7.52 -1.65,-10.89 0.58,-3.37 2.3,-6.06 5.15,-8.06 2.85,-2.01 6.74,-3.02 11.66,-3.02 4.15,0 7.48,0.94 10.01,2.82 2.53,1.88 4.83,5.54 6.9,10.98l19.43 50.53 -6.61 0 20.6 -50.72c2.07,-5.31 4.44,-8.91 7.09,-10.79 2.66,-1.88 6.25,-2.82 10.79,-2.82 3.89,0 7,1 9.33,3.02 2.33,2.01 3.76,4.7 4.28,8.06 0.52,3.37 -0.07,7 -1.75,10.89l-44.12 99.11c-2.33,5.19 -4.89,8.65 -7.67,10.4 -2.79,1.75 -6.32,2.63 -10.59,2.63zm84.74 -35.57c-5.83,0 -10.46,-1.75 -13.9,-5.25 -3.43,-3.5 -5.15,-8.1 -5.15,-13.8 0,-5.57 1.72,-10.07 5.15,-13.51 3.43,-3.43 8.07,-5.15 13.9,-5.15 6.09,0 10.78,1.72 14.09,5.15 3.3,3.43 4.95,7.94 4.95,13.51 0,5.7 -1.65,10.3 -4.95,13.8 -3.31,3.5 -8,5.25 -14.09,5.25z"/>
  </g>
  <path class="fil2" d="M2935.29 1037.41c-286.82,0 -478.04,191.22 -478.04,478.04 0,430.23 478.04,860.47 478.04,860.47 0,0 478.04,-430.24 478.04,-860.47 0,-286.82 -191.22,-478.04 -478.04,-478.04z"/>
  <path class="fil0 str0" d="M2799.36 1355.22c0,-27.75 -22.5,-50.25 -50.25,-50.25 -27.76,0 -50.25,22.5 -50.25,50.25 0,27.76 22.5,50.25 50.25,50.25 27.75,0 50.25,-22.5 50.25,-50.25z"/>
  <path class="fil0 str0" d="M3176.25 1355.22c0,-27.75 -22.5,-50.25 -50.25,-50.25 -27.76,0 -50.25,22.5 -50.25,50.25 0,27.76 22.5,50.25 50.25,50.25 27.75,0 50.25,-22.5 50.25,-50.25z"/>
  <path class="fil3 str0" d="M2698.31 1619.6c160.83,160.83 317.67,160.83 478.49,0 6.62,-6.62 17.41,-6.62 24.03,0 6.62,6.62 6.62,17.41 0,24.03 -174.18,174.18 -352.37,174.18 -526.56,0 -6.62,-6.62 -6.62,-17.41 0,-24.03 6.62,-6.62 17.41,-6.62 24.03,0z"/>
  <path class="fil3 str0" d="M2937.56 1083.03c239.33,0 433.33,194.01 433.33,433.33 0,239.33 -194.01,433.33 -433.33,433.33 -239.32,0 -433.33,-194.01 -433.33,-433.33 0,-239.32 194.01,-433.33 433.33,-433.33zm0 36.88c218.96,0 396.46,177.5 396.46,396.45 0,218.96 -177.5,396.45 -396.46,396.45 -218.96,0 -396.45,-177.5 -396.45,-396.45 0,-218.96 177.5,-396.45 396.45,-396.45z"/>
 </g>
</svg>
